<svg viewBox="0 0 64 64" xmlns="http://www.w3.org/2000/svg">
  <defs><linearGradient id="lg" x1="0" y1="0" x2="1" y2="1"><stop offset="0" stop-color="#5cb3ea"/><stop offset="1" stop-color="#3b82c4"/></linearGradient><linearGradient id="rg" x1="1" y1="0" x2="0" y2="1"><stop offset="0" stop-color="#d76fb6"/><stop offset="1" stop-color="#b455c9"/></linearGradient></defs>
  <g fill="none" stroke-width="2.4" stroke-linecap="round" stroke-linejoin="round">
    <g stroke="url(#lg)"><path d="M31 13 C22 9,13 13,12 22 C6 24,6 33,11 35 C8 41,13 49,21 47 C23 52,30 53,31 47 L31 13 Z"/><path d="M31 22 C24 21,22 27,26 29"/><path d="M31 34 C25 34,23 39,27 41"/><path d="M18 21 C16 25,19 28,22 27"/></g>
    <g stroke="url(#rg)"><path d="M33 13 C42 9,51 13,52 22 C58 24,58 33,53 35 C56 41,51 49,43 47 C41 52,34 53,33 47 L33 13 Z"/><path d="M33 22 C40 21,42 27,38 29"/><path d="M33 34 C39 34,41 39,37 41"/><path d="M46 21 C48 25,45 28,42 27"/></g>
  </g>
</svg>
